<svg xmlns="http://www.w3.org/2000/svg" xml:space="preserve" width="2000" height="483" data-id="lg_IkZ0qU9TGSD49NFcrY" data-version="1" viewBox="0 0 2000 483"><g data-padding="20"><g transform="translate(10 8.519)scale(.96473)"><rect width="560" height="70.06" x="342.237" y="-193.522" fill="none" rx="0" ry="0" transform="translate(400.5 606.68)"/><path fill="#fff" d="M761.947 467.668h-12.91l9.68-38.75h10.21q3.53 0 5.92 2.18 2.39 2.17 2.39 5.62 0 2.67-1.45 4.93-1.44 2.26-3.72 3.51 2.02 1.33 3.19 3.57 1.16 2.24 1.16 5.04 0 2.84-1.18 5.34-1.19 2.49-3.21 4.43-2.03 1.94-4.63 3.04-2.61 1.09-5.45 1.09m-2.84-20.66-4.09 16.27h6.98q2.58 0 4.73-1.27t3.47-3.38q1.31-2.11 1.31-4.6 0-3.1-2.09-5.06t-5.36-1.96Zm3.45-13.69-2.42 9.55h6.46q2.54 0 4.27-1.61 1.72-1.62 1.72-3.81 0-1.85-1.23-2.99t-3.12-1.14Zm37.88 34.35h-19.11l9.69-38.75h19.11l-1.07 4.4h-14.21l-2.07 8.26h11.19l-1.07 4.39h-11.2l-4.39 17.31h14.21Zm13.05 0h-4.91l9.69-38.75h9.3q2.75 0 4.93 1.17 2.17 1.16 3.44 3.23 1.27 2.06 1.27 4.77 0 2.63-1.2 4.96-1.21 2.32-3.23 3.98t-4.52 2.39l8.09 18.25h-5.29l-7.84-17.82h-5.25Zm8.61-34.35-3.1 12.4h5.81q2.2 0 3.96-.97 1.77-.97 2.78-2.57 1.01-1.59 1.01-3.48 0-2.41-1.65-3.9-1.66-1.48-4.55-1.48Zm25.36 34.35h-4.91l9.69-38.75h4.91Zm16.03-.01h-4.65l9.69-39 11.45 23.81 24.71-25.88-10.16 40.9h-4.91l4.7-18.77q.38-1.59.88-3.45.49-1.85 1.23-4.13-1.68 1.98-3.15 3.53-1.46 1.55-2.71 2.89l-12.27 12.87-5.21-10.81q-.78-1.63-1.66-3.68-.88-2.04-1.79-4.8-.43 3.06-.94 5.41-.52 2.34-.99 4.24Zm54.75.01h-12.91l9.69-38.75h10.2q3.53 0 5.92 2.18 2.39 2.17 2.39 5.62 0 2.67-1.44 4.93-1.45 2.26-3.73 3.51 2.03 1.33 3.19 3.57t1.16 5.04q0 2.84-1.18 5.34-1.19 2.49-3.21 4.43t-4.63 3.04q-2.6 1.09-5.45 1.09m-2.84-20.66-4.09 16.27h6.98q2.58 0 4.73-1.27 2.16-1.27 3.47-3.38t1.31-4.6q0-3.1-2.09-5.06-2.08-1.96-5.36-1.96Zm3.45-13.69-2.41 9.55h6.45q2.54 0 4.27-1.61 1.72-1.62 1.72-3.81 0-1.85-1.23-2.99t-3.12-1.14Zm38.62 35.12q-5.04 0-9.09-2.35-4.04-2.34-6.39-6.39t-2.35-9.04q0-4.44 1.83-8.49 1.83-4.04 5.02-7.21 3.18-3.16 7.23-4.99t8.48-1.83q5.04 0 9.07 2.35 4.02 2.34 6.39 6.37 2.37 4.02 2.37 9.06 0 4.44-1.83 8.48-1.83 4.05-5.02 7.21-3.18 3.17-7.23 5t-8.48 1.83m.47-4.65q3.36 0 6.42-1.42 3.05-1.42 5.44-3.9 2.39-2.47 3.77-5.62 1.38-3.14 1.38-6.58 0-3.84-1.75-6.89-1.74-3.06-4.73-4.83-2.99-1.76-6.74-1.76-3.36 0-6.41 1.42-3.06 1.42-5.45 3.9-2.39 2.47-3.77 5.61-1.38 3.15-1.38 6.59 0 3.83 1.75 6.89 1.74 3.06 4.73 4.82 3 1.77 6.74 1.77m43.66 3.88h-18.34l9.69-38.75h4.9l-8.61 34.36h13.44Zm27.34.77q-5.04 0-9.08-2.35-4.05-2.34-6.4-6.39-2.34-4.05-2.34-9.04 0-4.44 1.82-8.49 1.83-4.04 5.02-7.21 3.19-3.16 7.23-4.99 4.05-1.83 8.49-1.83 5.03 0 9.06 2.35 4.03 2.34 6.39 6.37 2.37 4.02 2.37 9.06 0 4.44-1.83 8.48-1.83 4.05-5.01 7.21-3.19 3.17-7.24 5t-8.48 1.83m.47-4.65q3.36 0 6.42-1.42t5.45-3.9q2.39-2.47 3.76-5.62 1.38-3.14 1.38-6.58 0-3.84-1.74-6.89-1.75-3.06-4.74-4.83-2.99-1.76-6.74-1.76-3.36 0-6.41 1.42-3.06 1.42-5.45 3.9-2.39 2.47-3.77 5.61-1.37 3.15-1.37 6.59 0 3.83 1.74 6.89t4.74 4.82q2.99 1.77 6.73 1.77m48.27 4.13q-3.4 0-6.39-1.66-3-1.65-4.5-4.41l2.84-5.68q.47 2.11 1.72 3.79t3.01 2.64q1.77.97 3.75.97 2.07 0 3.83-1.01 1.77-1.01 2.84-2.67 1.08-1.66 1.08-3.55 0-1.72-.95-3.14-.94-1.42-2.71-2.76l-3.79-2.97q-2.28-1.76-3.53-3.59t-1.25-4.29q0-2.93 1.57-5.42 1.57-2.5 4.2-4.01 2.63-1.5 5.77-1.5 2.84 0 5.47 1.2 2.63 1.21 4.35 3.32l-2.84 5.64q-.91-2.63-3.02-4.27-2.11-1.63-4.52-1.63-2.37 0-4.15 1.72-1.79 1.72-1.79 4.18 0 1.33.75 2.52.76 1.18 2.18 2.3l3.87 2.97q2.67 2.02 4.03 4.13 1.35 2.11 1.35 4.78 0 3.27-1.78 6.12-1.79 2.84-4.78 4.56t-6.61 1.72m37.5-.25h-19.12l9.69-38.75h19.12l-1.08 4.4h-14.21l-2.06 8.26h11.19l-1.08 4.39h-11.19l-4.39 17.31h14.21Zm27.86.77q-5.04 0-9.09-2.35-4.04-2.34-6.39-6.39t-2.35-9.04q0-4.44 1.83-8.49 1.83-4.04 5.02-7.21 3.18-3.16 7.23-4.99t8.48-1.83q4.01 0 7.41 1.51 3.4 1.5 5.81 4.17l-2.5 5.13q-1.72-2.8-4.65-4.48-2.92-1.68-6.54-1.68-3.36 0-6.42 1.42-3.05 1.42-5.44 3.9-2.39 2.47-3.77 5.61-1.38 3.15-1.38 6.59 0 3.83 1.75 6.89 1.74 3.06 4.73 4.82 3 1.77 6.74 1.77 3.83 0 7.26-1.85 3.42-1.85 5.83-4.87v6.46q-2.93 2.24-6.39 3.57-3.47 1.34-7.17 1.34m32.38-.25q-4.22 0-6.94-2.04-2.71-2.05-3.7-5.39-.99-3.33-.04-7.21l6.11-24.63h4.91l-6.29 25.06q-.6 2.5-.1 4.74.49 2.24 2.13 3.66 1.63 1.42 4.35 1.42 3.1 0 5.4-2.07 2.3-2.06 3.21-5.72l6.8-27.09h4.74l-6.89 27.52q-1.34 5.42-4.98 8.59-3.63 3.16-8.71 3.16m26-.52h-4.91l9.69-38.75h9.3q2.76 0 4.93 1.17 2.17 1.16 3.44 3.23 1.27 2.06 1.27 4.77 0 2.63-1.2 4.96-1.21 2.32-3.23 3.98t-4.52 2.39l8.09 18.25h-5.29l-7.84-17.82h-5.25Zm8.61-34.35-3.1 12.4h5.81q2.2 0 3.97-.97 1.76-.97 2.77-2.57 1.01-1.59 1.01-3.48 0-2.41-1.65-3.9-1.66-1.48-4.55-1.48Zm25.36 34.35h-4.91l9.69-38.75h4.91Zm26.95-34.35h-10.33l1.08-4.4h25.57l-1.07 4.4h-10.34l-8.61 34.35h-4.91Zm26.01 34.35h-4.91l4.69-18.73-6.63-20.02h5.17l3.53 11.28q.35 1.08.65 2.14.3 1.05.47 2.43.9-1.38 1.7-2.43.8-1.06 1.7-2.14l9.26-11.28h5.68l-16.62 20.02Z"/><rect width="495.325" height="412.45" x="374.575" y="-364.717" fill="none" rx="0" ry="0" transform="translate(401.17 364.5)"/><path fill="#fff" d="M860.157 23.558v24.82l10.95-.37q54.38 0 87.6 18.62 33.21 18.61 33.21 52.92 0 25.55-12.77 40.88-10.95 13.51-19.71 17.89l-3.65 2.19q6.2 1.09 16.97 7.12 10.77 6.02 17.7 13.14 6.94 7.12 12.78 20.62t5.84 29.93q0 43.43-36.5 66.06t-105.49 22.63q-49.64 0-80.48-24.09t-30.84-54.75q0-5.11 3.1-8.39 3.1-3.29 7.3-3.29t6.39 2.19q0 22.63 14.96 39.42 14.97 16.79 39.79 24.82V77.208q-16.06 7.3-25.92 17.34-9.85 10.04-9.85 19.16 0 9.13 2.19 15.7-2.19 4.38-9.86 4.38-7.66 0-13.14-5.48-5.47-5.47-5.47-14.6 0-17.15 17.15-33.94 17.16-16.79 44.9-25.19v-13.87q0-10.95 5.47-16.6 5.48-5.66 13.51-5.66t13.87 5.11m1.46 298.2h5.47q54.39 0 81.4-17.15 27.01-17.16 27.01-53.29 0-62.05-83.22-62.05-3.65 0-6.21-3.29-2.55-3.28-2.55-8.76 0-6.93 8.76-6.93 40.88 0 54.75-16.79 11.31-13.5 11.31-33.95 0-25.91-23.91-39.6-23.9-13.69-61.5-14.05-6.93 0-11.31 1.09Zm360.63-56.93q0-17.52-8.22-29.93-8.21-12.41-21.17-19.34-12.95-6.94-28.65-12.41-15.69-5.48-31.39-11.13-15.69-5.66-28.65-13.51t-21.17-21.72-8.21-33.58q0-33.94 25-53.29 25-19.34 64.24-19.34t62.6 17.88q23.36 17.89 23.36 39.06 0 14.6-5.66 21.72-5.66 7.11-13.32 7.11-14.24 0-18.25-5.47l-1.1-1.83q3.65-4.74 3.65-18.25 0-20.8-17.52-32.66-17.52-11.87-40.7-11.87-23.17 0-36.68 12.41-13.5 12.41-13.5 30.3 0 17.88 8.21 29.75 8.21 11.86 21.35 18.43t29.02 11.68 31.75 11.13q15.88 6.02 29.02 14.6t21.35 24.27q8.22 15.7 8.22 37.96 0 39.06-27.74 59.86-27.74 20.81-69.54 20.81-41.79 0-72.63-21.35-30.84-21.36-30.84-53.47 0-14.97 5.84-23.55t13.87-8.58q14.23 0 18.25 4.75l1.09 1.82q-3.28 9.13-3.28 22.27 0 24.82 20.25 43.43 20.26 18.62 53.11 18.62 23.73 0 40.88-16.61 17.16-16.61 17.16-39.97"/></g><path fill="transparent" stroke="transparent" d="M716.5 0h567v483h-567z"/></g></svg>